<mxfile host="app.diagrams.net" modified="2024-01-18T08:27:00.567Z" agent="Mozilla/5.0 (Windows NT 10.0; Win64; x64) AppleWebKit/537.36 (KHTML, like Gecko) Chrome/120.0.0.0 Safari/537.36 Edg/120.0.0.0" etag="LA1PTeYjBfpz_bEflu7m" version="22.1.18" type="github">
  <diagram name="Page-1" id="-Le3ZrVKYhISUuf_iz9a">
    <mxGraphModel dx="1979" dy="1145" grid="1" gridSize="10" guides="1" tooltips="1" connect="1" arrows="1" fold="1" page="1" pageScale="1" pageWidth="1169" pageHeight="827" math="0" shadow="0">
      <root>
        <mxCell id="0" />
        <mxCell id="1" parent="0" />
        <mxCell id="Et3zlpWZ9Y6Vf8EzI1Px-1" value="" style="rounded=1;whiteSpace=wrap;html=1;" vertex="1" parent="1">
          <mxGeometry x="170" y="610" width="120" height="120" as="geometry" />
        </mxCell>
        <mxCell id="Et3zlpWZ9Y6Vf8EzI1Px-2" value="Repair Module" style="swimlane;childLayout=stackLayout;resizeParent=1;resizeParentMax=0;horizontal=1;startSize=20;horizontalStack=0;html=1;" vertex="1" parent="1">
          <mxGeometry x="60" y="140" width="1320" height="500" as="geometry" />
        </mxCell>
        <mxCell id="Et3zlpWZ9Y6Vf8EzI1Px-3" value="MES" style="swimlane;startSize=20;horizontal=0;html=1;" vertex="1" parent="Et3zlpWZ9Y6Vf8EzI1Px-2">
          <mxGeometry y="20" width="1320" height="240" as="geometry" />
        </mxCell>
        <mxCell id="Et3zlpWZ9Y6Vf8EzI1Px-4" value="Lane 2" style="swimlane;startSize=20;horizontal=0;html=1;" vertex="1" parent="Et3zlpWZ9Y6Vf8EzI1Px-2">
          <mxGeometry y="260" width="1320" height="120" as="geometry" />
        </mxCell>
        <mxCell id="Et3zlpWZ9Y6Vf8EzI1Px-5" value="Lane 3" style="swimlane;startSize=20;horizontal=0;html=1;" vertex="1" parent="Et3zlpWZ9Y6Vf8EzI1Px-2">
          <mxGeometry y="380" width="1320" height="120" as="geometry" />
        </mxCell>
      </root>
    </mxGraphModel>
  </diagram>
</mxfile>
